<svg xmlns="http://www.w3.org/2000/svg" viewBox="0 0 1500 500" width="1500" height="500">
	<style>
		tspan { white-space:pre }
		.shp0 { fill: #52bcd3 } 
	</style>
	<g id="Logo">
		<path id="Icon" class="shp0" d="M142.89 149.97L200.59 170.99C205.34 173.25 227.91 182.19 267.92 171.44C318.47 157.86 427.9 134.33 429 134.09L424.93 111.81C424.89 111.82 424.58 111.88 424.2 111.97L319.9 96.04C308.43 94.29 289.92 94.8 278.54 97.2L139.11 126.5C120.97 125.48 103.72 137.55 97.94 157.13C94.61 168.42 95.54 180.46 100.55 190.97C103.11 196.35 106.61 200.99 110.78 204.76C104.5 210.07 99.57 217.37 96.97 226.18C93.64 237.47 94.57 249.51 99.58 260.04C102.3 265.73 106.08 270.53 110.57 274.38C104.39 279.67 99.54 286.94 96.96 295.65C93.63 306.95 94.57 318.97 99.57 329.5C104.59 340.03 113.09 347.81 123.51 351.42L224.03 386.24C229.55 388.15 238.6 388.58 244.25 387.16L420.71 343.37C420.71 343.37 419.66 338.41 418.37 332.3C417.08 326.19 411.46 322.36 405.81 323.77L245.15 363.62C239.51 365.03 230.46 364.6 224.94 362.7L129.9 329.79C124.81 328.04 120.66 324.22 118.22 319.09C115.77 313.96 115.31 308.09 116.94 302.59C120.3 291.2 131.57 284.97 142.08 288.53C142.1 288.43 200.23 308.55 224.04 316.76C229.56 318.67 238.6 319.1 244.25 317.68L420.72 273.9C420.72 273.9 419.67 268.93 418.38 262.82C417.09 256.71 411.46 252.88 405.81 254.29L245.16 294.15C239.52 295.55 230.47 295.12 224.95 293.23L129.9 260.31C124.81 258.56 120.66 254.74 118.22 249.61C115.77 244.48 115.31 238.61 116.94 233.11C120.3 221.72 131.57 215.48 142.08 219.05C142.09 219.02 201.02 239.42 225.01 247.72C230.52 249.63 239.58 250.05 245.22 248.64L421.68 204.84C421.68 204.84 420.63 199.9 419.34 193.77C418.04 187.66 412.42 183.83 406.78 185.24L246.12 225.08C240.48 226.5 231.44 226.07 225.91 224.16L130.86 191.26C125.78 189.5 121.62 185.68 119.18 180.54C116.73 175.42 116.27 169.54 117.91 164.04C121.26 152.68 132.53 146.34 142.89 149.97Z" />
		<g id="Text">
			<path id="Title" fill="#000000" d="M567.6 297.85Q567.6 316.75 556.75 326.55Q545.9 336 531.2 336L475.2 336L475.2 91L518.95 91Q542.05 91 554.65 104.3Q567.25 117.25 567.25 140L566.9 210Q566.9 235.9 546.6 248.5Q567.6 255.15 567.6 280.7L567.6 297.85ZM493.75 107.8L493.75 243.6L519.65 243.6Q526.3 243.6 532.95 239.4Q539.95 235.2 544.5 227.5Q549.4 219.45 549.4 209.65L549.4 140Q549.4 108.15 518.95 107.8L493.75 107.8ZM549.4 280.7Q549.4 270.55 543.1 265.3Q536.8 260.05 526.3 259.7L493.75 259.7L493.75 319.55L531.2 319.55Q541.7 319.55 545.55 312.55Q549.4 305.55 549.4 297.85L549.4 280.7ZM603.3 336L603.3 91L621.85 91L621.85 336L603.3 336ZM750.65 297.85Q750.65 316.75 739.8 326.55Q728.95 336 714.25 336L658.25 336L658.25 91L702 91Q725.1 91 737.7 104.3Q750.3 117.25 750.3 140L749.95 210Q749.95 235.9 729.65 248.5Q750.65 255.15 750.65 280.7L750.65 297.85ZM676.8 107.8L676.8 243.6L702.7 243.6Q709.35 243.6 716 239.4Q723 235.2 727.55 227.5Q732.45 219.45 732.45 209.65L732.45 140Q732.45 108.15 702 107.8L676.8 107.8ZM732.45 280.7Q732.45 270.55 726.15 265.3Q719.85 260.05 709.35 259.7L676.8 259.7L676.8 319.55L714.25 319.55Q724.75 319.55 728.6 312.55Q732.45 305.55 732.45 297.85L732.45 280.7ZM858.1 319.55L858.1 336L786 336L786 91L804.55 91L804.55 319.55L858.1 319.55ZM887.15 336L887.15 91L905.7 91L905.7 336L887.15 336ZM987.95 338.45Q965.9 338.45 952.6 323.75Q939.3 309.05 939.3 287.7L939.3 139.65Q939.3 118.65 951.9 103.95Q964.85 88.9 987.95 88.9Q1009.3 88.9 1021.9 103.95Q1034.5 118.65 1034.5 140L1034.5 287.35Q1034.5 308.35 1022.25 323.4Q1010 338.45 987.95 338.45ZM987.95 105.35Q973.25 105.35 965.55 115.15Q957.85 124.6 957.85 139.65L957.85 287.7Q957.85 302.05 965.55 311.85Q973.25 321.65 987.95 321.65Q1001.6 321.65 1008.95 311.85Q1016.65 302.05 1016.65 287.35L1016.65 140Q1016.65 125.65 1009.3 115.5Q1001.95 105.35 987.95 105.35ZM1142.3 319.55L1142.3 336L1070.2 336L1070.2 91L1088.75 91L1088.75 319.55L1142.3 319.55ZM1171.35 336L1171.35 91L1189.9 91L1189.9 336L1171.35 336ZM1299.45 107.1L1265.5 107.1L1265.5 336L1247.65 336L1247.65 107.1L1213.35 107.1L1213.35 91L1299.45 91L1299.45 107.1ZM1344.6 107.1L1344.6 254.45L1397.45 254.45L1397.45 270.55L1344.6 270.55L1344.6 319.55L1411.1 319.55L1411.1 336L1326.05 336L1326.05 91L1411.1 91L1411.1 107.1L1344.6 107.1Z" />
			<path id="Subtitle" fill="#191919" d="M495.32 394L495.32 390.95L485.17 390.95L485.17 363.9L481.21 363.9L481.21 394ZM517.28 363.9L517.28 394L521.23 394L521.23 363.9ZM544.26 363.9L544.26 394L552.42 394C557.96 394 560.54 391.46 560.54 386.95L560.54 384.41C560.54 381.1 559.22 378.78 555.77 377.96C558.87 377.14 559.93 375.17 559.93 371.98L559.93 370.56C559.93 366.14 557.75 363.9 552.22 363.9ZM548.21 376.67L548.21 366.95L552.12 366.95C554.96 366.95 556.03 368.24 556.03 370.91L556.03 372.67C556.03 375.81 554.4 376.67 551.26 376.67ZM548.21 390.95L548.21 379.72L551.66 379.72C555.06 379.72 556.64 380.84 556.64 384.2L556.64 386.86C556.64 389.66 555.32 390.95 552.42 390.95ZM583.11 363.9L583.11 394L587.07 394L587.07 381.14L589.86 381.14C593.16 381.14 595.03 382.22 595.03 385.62L595.03 390.35C595.03 392.37 595.24 393.14 595.69 394L599.7 394C599.04 392.97 598.99 391.72 598.99 390.39L598.99 385.7C598.99 382.48 597.77 380.24 594.53 379.42C597.57 378.61 598.94 376.54 598.94 373.23L598.94 370.78C598.94 366.31 596.61 363.9 591.02 363.9ZM587.07 378.09L587.07 366.95L590.92 366.95C593.87 366.95 595.03 368.37 595.03 371.08L595.03 373.96C595.03 377.23 593.16 378.09 590.01 378.09ZM635.05 387.94L636.42 394L640.38 394L633.58 363.9L627.85 363.9L621.05 394L624.7 394L626.07 387.94ZM630.49 367.68L634.49 385.06L626.58 385.06ZM662.44 363.9L662.44 394L666.4 394L666.4 381.14L669.19 381.14C672.49 381.14 674.36 382.22 674.36 385.62L674.36 390.35C674.36 392.37 674.57 393.14 675.02 394L679.03 394C678.37 392.97 678.32 391.72 678.32 390.39L678.32 385.7C678.32 382.48 677.1 380.24 673.86 379.42C676.9 378.61 678.27 376.54 678.27 373.23L678.27 370.78C678.27 366.31 675.94 363.9 670.35 363.9ZM666.4 378.09L666.4 366.95L670.25 366.95C673.2 366.95 674.36 368.37 674.36 371.08L674.36 373.96C674.36 377.23 672.49 378.09 669.34 378.09ZM707.18 394L711.08 394L711.08 383.21L718.64 363.9L714.89 363.9L709.31 378.69L703.78 363.9L699.67 363.9L707.18 383.21ZM786 369.79L786 394L789.75 394L789.75 363.9L784.22 363.9L778.59 387.94L772.76 363.9L767.23 363.9L767.23 394L770.68 394L770.68 370.01L776.56 393.96L780.37 393.96ZM825.77 387.94L827.14 394L831.09 394L824.29 363.9L818.56 363.9L811.76 394L815.42 394L816.79 387.94ZM821.2 367.68L825.21 385.06L817.29 385.06ZM856.65 369.66L865.74 394L869.85 394L869.85 363.9L866.34 363.9L866.34 385.66L858.12 363.9L853.1 363.9L853.1 394L856.65 394ZM905.86 387.94L907.23 394L911.18 394L904.39 363.9L898.65 363.9L891.85 394L895.51 394L896.88 387.94ZM901.29 367.68L905.3 385.06L897.38 385.06ZM940.85 363.6C935.42 363.6 932.89 366.61 932.89 371.17L932.89 386.73C932.89 391.29 935.42 394.3 940.85 394.3C946.33 394.3 948.87 391.29 948.87 386.73L948.87 377.88L941.46 377.88L941.46 380.88L945.12 380.88L945.12 386.9C945.12 389.61 943.85 391.25 940.96 391.25C938.11 391.25 936.79 389.61 936.79 386.9L936.79 371C936.79 368.29 938.11 366.65 940.96 366.65C943.85 366.65 945.12 368.29 945.12 371L945.12 373.75L948.87 373.75L948.87 371.17C948.87 366.61 946.33 363.6 940.85 363.6ZM975.55 377.23L975.55 366.95L986.2 366.95L986.2 363.9L971.59 363.9L971.59 394L986.2 394L986.2 390.95L975.55 390.95L975.55 380.24L984.22 380.24L984.22 377.23ZM1027.54 369.79L1027.54 394L1031.3 394L1031.3 363.9L1025.77 363.9L1020.13 387.94L1014.3 363.9L1008.77 363.9L1008.77 394L1012.22 394L1012.22 370.01L1018.1 393.96L1021.91 393.96ZM1058.28 377.23L1058.28 366.95L1068.93 366.95L1068.93 363.9L1054.32 363.9L1054.32 394L1068.93 394L1068.93 390.95L1058.28 390.95L1058.28 380.24L1066.95 380.24L1066.95 377.23ZM1095.05 369.66L1104.13 394L1108.24 394L1108.24 363.9L1104.74 363.9L1104.74 385.66L1096.52 363.9L1091.5 363.9L1091.5 394L1095.05 394ZM1140.3 394L1140.3 366.95L1146.84 366.95L1146.84 363.9L1129.84 363.9L1129.84 366.95L1136.39 366.95L1136.39 394ZM1202.78 363.6C1197.45 363.6 1194.91 366.48 1194.91 371.12C1194.91 379.6 1206.79 380.24 1206.79 386.95C1206.79 389.66 1205.47 391.25 1202.63 391.25C1199.79 391.25 1198.47 389.66 1198.47 386.95L1198.47 385.06L1194.76 385.06L1194.76 386.78C1194.76 391.33 1197.3 394.3 1202.73 394.3C1208.16 394.3 1210.75 391.33 1210.75 386.78C1210.75 378.31 1198.82 377.66 1198.82 370.91C1198.82 368.24 1200.04 366.65 1202.88 366.65C1205.72 366.65 1206.94 368.24 1206.94 370.95L1206.94 371.94L1210.69 371.94L1210.69 371.12C1210.69 366.57 1208.16 363.6 1202.78 363.6ZM1239.1 394L1243 394L1243 383.21L1250.56 363.9L1246.81 363.9L1241.23 378.69L1235.7 363.9L1231.59 363.9L1239.1 383.21ZM1279.47 363.6C1274.14 363.6 1271.61 366.48 1271.61 371.12C1271.61 379.6 1283.48 380.24 1283.48 386.95C1283.48 389.66 1282.16 391.25 1279.32 391.25C1276.48 391.25 1275.16 389.66 1275.16 386.95L1275.16 385.06L1271.45 385.06L1271.45 386.78C1271.45 391.33 1273.99 394.3 1279.42 394.3C1284.85 394.3 1287.44 391.33 1287.44 386.78C1287.44 378.31 1275.51 377.66 1275.51 370.91C1275.51 368.24 1276.73 366.65 1279.57 366.65C1282.41 366.65 1283.63 368.24 1283.63 370.95L1283.63 371.94L1287.39 371.94L1287.39 371.12C1287.39 366.57 1284.85 363.6 1279.47 363.6ZM1318.88 394L1318.88 366.95L1325.43 366.95L1325.43 363.9L1308.43 363.9L1308.43 366.95L1314.97 366.95L1314.97 394ZM1351.04 377.23L1351.04 366.95L1361.69 366.95L1361.69 363.9L1347.08 363.9L1347.08 394L1361.69 394L1361.69 390.95L1351.04 390.95L1351.04 380.24L1359.71 380.24L1359.71 377.23ZM1403.03 369.79L1403.03 394L1406.79 394L1406.79 363.9L1401.26 363.9L1395.62 387.94L1389.79 363.9L1384.26 363.9L1384.26 394L1387.71 394L1387.71 370.01L1393.59 393.96L1397.4 393.96Z" />
		</g>
	</g>
</svg>